<mxfile host="app.diagrams.net" modified="2021-04-16T06:26:02.497Z" agent="5.0 (Windows NT 6.1; Win64; x64) AppleWebKit/537.36 (KHTML, like Gecko) Chrome/89.0.4389.128 Safari/537.36" etag="f_IWZKlb7UeawaINmAiX" version="14.2.9" type="github">
  <diagram id="C5RBs43oDa-KdzZeNtuy" name="Page-1">
    <mxGraphModel dx="868" dy="1694" grid="1" gridSize="10" guides="1" tooltips="1" connect="1" arrows="1" fold="1" page="1" pageScale="1" pageWidth="827" pageHeight="1169" math="0" shadow="0">
      <root>
        <mxCell id="WIyWlLk6GJQsqaUBKTNV-0" />
        <mxCell id="WIyWlLk6GJQsqaUBKTNV-1" parent="WIyWlLk6GJQsqaUBKTNV-0" />
        <mxCell id="urxwOVvsEIFJY8-znygt-6" style="edgeStyle=orthogonalEdgeStyle;rounded=0;orthogonalLoop=1;jettySize=auto;html=1;entryX=0.5;entryY=0;entryDx=0;entryDy=0;" edge="1" parent="WIyWlLk6GJQsqaUBKTNV-1" source="WIyWlLk6GJQsqaUBKTNV-3" target="urxwOVvsEIFJY8-znygt-5">
          <mxGeometry relative="1" as="geometry" />
        </mxCell>
        <mxCell id="WIyWlLk6GJQsqaUBKTNV-3" value="ffmpeg-mux.c" style="rounded=1;whiteSpace=wrap;html=1;fontSize=12;glass=0;strokeWidth=1;shadow=0;" parent="WIyWlLk6GJQsqaUBKTNV-1" vertex="1">
          <mxGeometry x="160" y="80" width="120" height="40" as="geometry" />
        </mxCell>
        <mxCell id="urxwOVvsEIFJY8-znygt-9" value="" style="edgeStyle=orthogonalEdgeStyle;rounded=0;orthogonalLoop=1;jettySize=auto;html=1;" edge="1" parent="WIyWlLk6GJQsqaUBKTNV-1" source="urxwOVvsEIFJY8-znygt-5" target="urxwOVvsEIFJY8-znygt-8">
          <mxGeometry relative="1" as="geometry" />
        </mxCell>
        <mxCell id="urxwOVvsEIFJY8-znygt-11" style="edgeStyle=orthogonalEdgeStyle;rounded=0;orthogonalLoop=1;jettySize=auto;html=1;" edge="1" parent="WIyWlLk6GJQsqaUBKTNV-1" source="urxwOVvsEIFJY8-znygt-5" target="urxwOVvsEIFJY8-znygt-10">
          <mxGeometry relative="1" as="geometry" />
        </mxCell>
        <mxCell id="urxwOVvsEIFJY8-znygt-5" value="&lt;span&gt;ffmpeg_mux_init&lt;/span&gt;" style="rhombus;whiteSpace=wrap;html=1;" vertex="1" parent="WIyWlLk6GJQsqaUBKTNV-1">
          <mxGeometry x="162" y="170" width="116" height="80" as="geometry" />
        </mxCell>
        <mxCell id="urxwOVvsEIFJY8-znygt-12" style="edgeStyle=orthogonalEdgeStyle;rounded=0;orthogonalLoop=1;jettySize=auto;html=1;" edge="1" parent="WIyWlLk6GJQsqaUBKTNV-1" source="urxwOVvsEIFJY8-znygt-8" target="urxwOVvsEIFJY8-znygt-10">
          <mxGeometry relative="1" as="geometry">
            <Array as="points">
              <mxPoint x="360" y="340" />
              <mxPoint x="360" y="210" />
            </Array>
          </mxGeometry>
        </mxCell>
        <mxCell id="urxwOVvsEIFJY8-znygt-15" value="" style="edgeStyle=orthogonalEdgeStyle;rounded=0;orthogonalLoop=1;jettySize=auto;html=1;" edge="1" parent="WIyWlLk6GJQsqaUBKTNV-1" source="urxwOVvsEIFJY8-znygt-8" target="urxwOVvsEIFJY8-znygt-14">
          <mxGeometry relative="1" as="geometry" />
        </mxCell>
        <mxCell id="urxwOVvsEIFJY8-znygt-8" value="ffmpeg_mux_init_internal" style="rhombus;whiteSpace=wrap;html=1;" vertex="1" parent="WIyWlLk6GJQsqaUBKTNV-1">
          <mxGeometry x="131" y="300" width="178" height="80" as="geometry" />
        </mxCell>
        <mxCell id="urxwOVvsEIFJY8-znygt-10" value="FFM_ERROR" style="rounded=1;whiteSpace=wrap;html=1;" vertex="1" parent="WIyWlLk6GJQsqaUBKTNV-1">
          <mxGeometry x="450" y="180" width="120" height="60" as="geometry" />
        </mxCell>
        <mxCell id="urxwOVvsEIFJY8-znygt-18" value="" style="edgeStyle=orthogonalEdgeStyle;rounded=0;orthogonalLoop=1;jettySize=auto;html=1;" edge="1" parent="WIyWlLk6GJQsqaUBKTNV-1" source="urxwOVvsEIFJY8-znygt-14" target="urxwOVvsEIFJY8-znygt-17">
          <mxGeometry relative="1" as="geometry" />
        </mxCell>
        <mxCell id="urxwOVvsEIFJY8-znygt-14" value="init_params" style="rhombus;whiteSpace=wrap;html=1;" vertex="1" parent="WIyWlLk6GJQsqaUBKTNV-1">
          <mxGeometry x="131" y="440" width="178" height="80" as="geometry" />
        </mxCell>
        <mxCell id="urxwOVvsEIFJY8-znygt-16" value="初始化参数,检查参数是否正确" style="text;html=1;strokeColor=none;fillColor=none;align=center;verticalAlign=middle;whiteSpace=wrap;rounded=0;" vertex="1" parent="WIyWlLk6GJQsqaUBKTNV-1">
          <mxGeometry x="260" y="430" width="80" height="20" as="geometry" />
        </mxCell>
        <mxCell id="urxwOVvsEIFJY8-znygt-21" value="" style="edgeStyle=orthogonalEdgeStyle;rounded=0;orthogonalLoop=1;jettySize=auto;html=1;" edge="1" parent="WIyWlLk6GJQsqaUBKTNV-1" source="urxwOVvsEIFJY8-znygt-17" target="urxwOVvsEIFJY8-znygt-20">
          <mxGeometry relative="1" as="geometry" />
        </mxCell>
        <mxCell id="urxwOVvsEIFJY8-znygt-17" value="ffmpeg_mux_get_extra_data" style="whiteSpace=wrap;html=1;" vertex="1" parent="WIyWlLk6GJQsqaUBKTNV-1">
          <mxGeometry x="140" y="570" width="160" height="60" as="geometry" />
        </mxCell>
        <mxCell id="urxwOVvsEIFJY8-znygt-19" value="检查文件头" style="text;html=1;strokeColor=none;fillColor=none;align=center;verticalAlign=middle;whiteSpace=wrap;rounded=0;" vertex="1" parent="WIyWlLk6GJQsqaUBKTNV-1">
          <mxGeometry x="260" y="540" width="40" height="20" as="geometry" />
        </mxCell>
        <mxCell id="urxwOVvsEIFJY8-znygt-36" value="" style="edgeStyle=orthogonalEdgeStyle;rounded=0;orthogonalLoop=1;jettySize=auto;html=1;" edge="1" parent="WIyWlLk6GJQsqaUBKTNV-1" source="urxwOVvsEIFJY8-znygt-20" target="urxwOVvsEIFJY8-znygt-35">
          <mxGeometry relative="1" as="geometry" />
        </mxCell>
        <mxCell id="urxwOVvsEIFJY8-znygt-20" value="ffmpeg_mux_init_context" style="whiteSpace=wrap;html=1;" vertex="1" parent="WIyWlLk6GJQsqaUBKTNV-1">
          <mxGeometry x="140" y="690" width="160" height="60" as="geometry" />
        </mxCell>
        <mxCell id="urxwOVvsEIFJY8-znygt-25" value="" style="edgeStyle=orthogonalEdgeStyle;rounded=0;orthogonalLoop=1;jettySize=auto;html=1;" edge="1" parent="WIyWlLk6GJQsqaUBKTNV-1" target="urxwOVvsEIFJY8-znygt-24">
          <mxGeometry relative="1" as="geometry">
            <mxPoint x="210" y="880" as="sourcePoint" />
          </mxGeometry>
        </mxCell>
        <mxCell id="urxwOVvsEIFJY8-znygt-28" style="edgeStyle=orthogonalEdgeStyle;rounded=0;orthogonalLoop=1;jettySize=auto;html=1;entryX=0.5;entryY=0;entryDx=0;entryDy=0;" edge="1" parent="WIyWlLk6GJQsqaUBKTNV-1" source="urxwOVvsEIFJY8-znygt-26" target="urxwOVvsEIFJY8-znygt-27">
          <mxGeometry relative="1" as="geometry" />
        </mxCell>
        <mxCell id="urxwOVvsEIFJY8-znygt-34" value="" style="edgeStyle=orthogonalEdgeStyle;rounded=0;orthogonalLoop=1;jettySize=auto;html=1;" edge="1" parent="WIyWlLk6GJQsqaUBKTNV-1" source="urxwOVvsEIFJY8-znygt-26" target="urxwOVvsEIFJY8-znygt-33">
          <mxGeometry relative="1" as="geometry" />
        </mxCell>
        <mxCell id="urxwOVvsEIFJY8-znygt-26" value="avformat_network_init" style="whiteSpace=wrap;html=1;" vertex="1" parent="WIyWlLk6GJQsqaUBKTNV-1">
          <mxGeometry x="680" y="130" width="180" height="60" as="geometry" />
        </mxCell>
        <mxCell id="urxwOVvsEIFJY8-znygt-30" value="" style="edgeStyle=orthogonalEdgeStyle;rounded=0;orthogonalLoop=1;jettySize=auto;html=1;" edge="1" parent="WIyWlLk6GJQsqaUBKTNV-1" source="urxwOVvsEIFJY8-znygt-27" target="urxwOVvsEIFJY8-znygt-29">
          <mxGeometry relative="1" as="geometry" />
        </mxCell>
        <mxCell id="urxwOVvsEIFJY8-znygt-27" value="av_guess_format" style="whiteSpace=wrap;html=1;" vertex="1" parent="WIyWlLk6GJQsqaUBKTNV-1">
          <mxGeometry x="710" y="240" width="120" height="60" as="geometry" />
        </mxCell>
        <mxCell id="urxwOVvsEIFJY8-znygt-32" value="" style="edgeStyle=orthogonalEdgeStyle;rounded=0;orthogonalLoop=1;jettySize=auto;html=1;" edge="1" parent="WIyWlLk6GJQsqaUBKTNV-1" source="urxwOVvsEIFJY8-znygt-29" target="urxwOVvsEIFJY8-znygt-31">
          <mxGeometry relative="1" as="geometry" />
        </mxCell>
        <mxCell id="urxwOVvsEIFJY8-znygt-29" value="avformat_alloc_output_context2" style="whiteSpace=wrap;html=1;" vertex="1" parent="WIyWlLk6GJQsqaUBKTNV-1">
          <mxGeometry x="675" y="360" width="190" height="60" as="geometry" />
        </mxCell>
        <mxCell id="urxwOVvsEIFJY8-znygt-31" value="avformat_alloc_output_context2" style="whiteSpace=wrap;html=1;" vertex="1" parent="WIyWlLk6GJQsqaUBKTNV-1">
          <mxGeometry x="675" y="460" width="190" height="60" as="geometry" />
        </mxCell>
        <mxCell id="urxwOVvsEIFJY8-znygt-33" value="ffmpeg_init" style="whiteSpace=wrap;html=1;" vertex="1" parent="WIyWlLk6GJQsqaUBKTNV-1">
          <mxGeometry x="710" y="-10" width="120" height="60" as="geometry" />
        </mxCell>
        <mxCell id="urxwOVvsEIFJY8-znygt-38" value="" style="edgeStyle=orthogonalEdgeStyle;rounded=0;orthogonalLoop=1;jettySize=auto;html=1;" edge="1" parent="WIyWlLk6GJQsqaUBKTNV-1" source="urxwOVvsEIFJY8-znygt-35" target="urxwOVvsEIFJY8-znygt-37">
          <mxGeometry relative="1" as="geometry" />
        </mxCell>
        <mxCell id="urxwOVvsEIFJY8-znygt-35" value="ffmpeg_init" style="whiteSpace=wrap;html=1;" vertex="1" parent="WIyWlLk6GJQsqaUBKTNV-1">
          <mxGeometry x="160" y="810" width="120" height="60" as="geometry" />
        </mxCell>
        <mxCell id="urxwOVvsEIFJY8-znygt-62" style="edgeStyle=orthogonalEdgeStyle;rounded=0;orthogonalLoop=1;jettySize=auto;html=1;" edge="1" parent="WIyWlLk6GJQsqaUBKTNV-1" source="urxwOVvsEIFJY8-znygt-37">
          <mxGeometry relative="1" as="geometry">
            <mxPoint x="220" y="1050" as="targetPoint" />
          </mxGeometry>
        </mxCell>
        <mxCell id="urxwOVvsEIFJY8-znygt-37" value="init_streams" style="whiteSpace=wrap;html=1;" vertex="1" parent="WIyWlLk6GJQsqaUBKTNV-1">
          <mxGeometry x="160" y="930" width="120" height="60" as="geometry" />
        </mxCell>
        <mxCell id="urxwOVvsEIFJY8-znygt-42" style="edgeStyle=orthogonalEdgeStyle;rounded=0;orthogonalLoop=1;jettySize=auto;html=1;entryX=0.417;entryY=-0.017;entryDx=0;entryDy=0;entryPerimeter=0;" edge="1" parent="WIyWlLk6GJQsqaUBKTNV-1" source="urxwOVvsEIFJY8-znygt-39" target="urxwOVvsEIFJY8-znygt-40">
          <mxGeometry relative="1" as="geometry" />
        </mxCell>
        <mxCell id="urxwOVvsEIFJY8-znygt-43" style="edgeStyle=orthogonalEdgeStyle;rounded=0;orthogonalLoop=1;jettySize=auto;html=1;" edge="1" parent="WIyWlLk6GJQsqaUBKTNV-1" source="urxwOVvsEIFJY8-znygt-39" target="urxwOVvsEIFJY8-znygt-41">
          <mxGeometry relative="1" as="geometry" />
        </mxCell>
        <mxCell id="urxwOVvsEIFJY8-znygt-39" value="init_streams" style="rounded=1;whiteSpace=wrap;html=1;" vertex="1" parent="WIyWlLk6GJQsqaUBKTNV-1">
          <mxGeometry x="670" y="560" width="160" height="60" as="geometry" />
        </mxCell>
        <mxCell id="urxwOVvsEIFJY8-znygt-45" value="" style="edgeStyle=orthogonalEdgeStyle;rounded=0;orthogonalLoop=1;jettySize=auto;html=1;" edge="1" parent="WIyWlLk6GJQsqaUBKTNV-1" source="urxwOVvsEIFJY8-znygt-40" target="urxwOVvsEIFJY8-znygt-44">
          <mxGeometry relative="1" as="geometry" />
        </mxCell>
        <mxCell id="urxwOVvsEIFJY8-znygt-40" value="create_video_stream" style="rounded=0;whiteSpace=wrap;html=1;" vertex="1" parent="WIyWlLk6GJQsqaUBKTNV-1">
          <mxGeometry x="610" y="660" width="120" height="60" as="geometry" />
        </mxCell>
        <mxCell id="urxwOVvsEIFJY8-znygt-60" style="edgeStyle=orthogonalEdgeStyle;rounded=0;orthogonalLoop=1;jettySize=auto;html=1;entryX=1;entryY=0.5;entryDx=0;entryDy=0;" edge="1" parent="WIyWlLk6GJQsqaUBKTNV-1" source="urxwOVvsEIFJY8-znygt-41" target="urxwOVvsEIFJY8-znygt-44">
          <mxGeometry relative="1" as="geometry">
            <Array as="points">
              <mxPoint x="830" y="790" />
            </Array>
          </mxGeometry>
        </mxCell>
        <mxCell id="urxwOVvsEIFJY8-znygt-41" value="create_audio_stream" style="rounded=0;whiteSpace=wrap;html=1;" vertex="1" parent="WIyWlLk6GJQsqaUBKTNV-1">
          <mxGeometry x="770" y="660" width="120" height="60" as="geometry" />
        </mxCell>
        <mxCell id="urxwOVvsEIFJY8-znygt-47" value="" style="edgeStyle=orthogonalEdgeStyle;rounded=0;orthogonalLoop=1;jettySize=auto;html=1;" edge="1" parent="WIyWlLk6GJQsqaUBKTNV-1" source="urxwOVvsEIFJY8-znygt-44" target="urxwOVvsEIFJY8-znygt-46">
          <mxGeometry relative="1" as="geometry" />
        </mxCell>
        <mxCell id="urxwOVvsEIFJY8-znygt-44" value="new_stream" style="whiteSpace=wrap;html=1;rounded=0;" vertex="1" parent="WIyWlLk6GJQsqaUBKTNV-1">
          <mxGeometry x="610" y="760" width="120" height="60" as="geometry" />
        </mxCell>
        <mxCell id="urxwOVvsEIFJY8-znygt-49" value="" style="edgeStyle=orthogonalEdgeStyle;rounded=0;orthogonalLoop=1;jettySize=auto;html=1;" edge="1" parent="WIyWlLk6GJQsqaUBKTNV-1" source="urxwOVvsEIFJY8-znygt-46" target="urxwOVvsEIFJY8-znygt-48">
          <mxGeometry relative="1" as="geometry" />
        </mxCell>
        <mxCell id="urxwOVvsEIFJY8-znygt-46" value="avcodec_descriptor_get_by_name" style="whiteSpace=wrap;html=1;rounded=0;" vertex="1" parent="WIyWlLk6GJQsqaUBKTNV-1">
          <mxGeometry x="565" y="880" width="210" height="60" as="geometry" />
        </mxCell>
        <mxCell id="urxwOVvsEIFJY8-znygt-51" value="" style="edgeStyle=orthogonalEdgeStyle;rounded=0;orthogonalLoop=1;jettySize=auto;html=1;" edge="1" parent="WIyWlLk6GJQsqaUBKTNV-1" source="urxwOVvsEIFJY8-znygt-48" target="urxwOVvsEIFJY8-znygt-50">
          <mxGeometry relative="1" as="geometry" />
        </mxCell>
        <mxCell id="urxwOVvsEIFJY8-znygt-48" value="avcodec_find_encoder" style="whiteSpace=wrap;html=1;rounded=0;" vertex="1" parent="WIyWlLk6GJQsqaUBKTNV-1">
          <mxGeometry x="595" y="1000" width="150" height="60" as="geometry" />
        </mxCell>
        <mxCell id="urxwOVvsEIFJY8-znygt-56" value="" style="edgeStyle=orthogonalEdgeStyle;rounded=0;orthogonalLoop=1;jettySize=auto;html=1;" edge="1" parent="WIyWlLk6GJQsqaUBKTNV-1" source="urxwOVvsEIFJY8-znygt-50">
          <mxGeometry relative="1" as="geometry">
            <mxPoint x="830" y="1260" as="targetPoint" />
            <Array as="points">
              <mxPoint x="670" y="1210" />
              <mxPoint x="830" y="1210" />
            </Array>
          </mxGeometry>
        </mxCell>
        <mxCell id="urxwOVvsEIFJY8-znygt-50" value="avformat_new_stream" style="whiteSpace=wrap;html=1;rounded=0;" vertex="1" parent="WIyWlLk6GJQsqaUBKTNV-1">
          <mxGeometry x="595" y="1130" width="150" height="60" as="geometry" />
        </mxCell>
        <mxCell id="urxwOVvsEIFJY8-znygt-59" value="" style="edgeStyle=orthogonalEdgeStyle;rounded=0;orthogonalLoop=1;jettySize=auto;html=1;" edge="1" parent="WIyWlLk6GJQsqaUBKTNV-1" source="urxwOVvsEIFJY8-znygt-52" target="urxwOVvsEIFJY8-znygt-58">
          <mxGeometry relative="1" as="geometry" />
        </mxCell>
        <mxCell id="urxwOVvsEIFJY8-znygt-52" value="avcodec_alloc_context3" style="rounded=0;whiteSpace=wrap;html=1;" vertex="1" parent="WIyWlLk6GJQsqaUBKTNV-1">
          <mxGeometry x="745" y="1260" width="170" height="60" as="geometry" />
        </mxCell>
        <mxCell id="urxwOVvsEIFJY8-znygt-57" value="设置相关参数包括长宽,比特等" style="text;html=1;strokeColor=none;fillColor=none;align=center;verticalAlign=middle;whiteSpace=wrap;rounded=0;" vertex="1" parent="WIyWlLk6GJQsqaUBKTNV-1">
          <mxGeometry x="920" y="1280" width="90" height="20" as="geometry" />
        </mxCell>
        <mxCell id="urxwOVvsEIFJY8-znygt-58" value="avcodec_parameters_from_context" style="whiteSpace=wrap;html=1;rounded=0;" vertex="1" parent="WIyWlLk6GJQsqaUBKTNV-1">
          <mxGeometry x="730" y="1400" width="200" height="60" as="geometry" />
        </mxCell>
        <mxCell id="urxwOVvsEIFJY8-znygt-78" value="" style="edgeStyle=orthogonalEdgeStyle;rounded=0;orthogonalLoop=1;jettySize=auto;html=1;" edge="1" parent="WIyWlLk6GJQsqaUBKTNV-1" source="urxwOVvsEIFJY8-znygt-65" target="urxwOVvsEIFJY8-znygt-77">
          <mxGeometry relative="1" as="geometry" />
        </mxCell>
        <mxCell id="urxwOVvsEIFJY8-znygt-65" value="open_output_file" style="rounded=0;whiteSpace=wrap;html=1;" vertex="1" parent="WIyWlLk6GJQsqaUBKTNV-1">
          <mxGeometry x="160" y="1050" width="120" height="60" as="geometry" />
        </mxCell>
        <mxCell id="urxwOVvsEIFJY8-znygt-70" value="" style="edgeStyle=orthogonalEdgeStyle;rounded=0;orthogonalLoop=1;jettySize=auto;html=1;" edge="1" parent="WIyWlLk6GJQsqaUBKTNV-1" source="urxwOVvsEIFJY8-znygt-66">
          <mxGeometry relative="1" as="geometry">
            <mxPoint x="1090" y="700" as="targetPoint" />
          </mxGeometry>
        </mxCell>
        <mxCell id="urxwOVvsEIFJY8-znygt-66" value="open_output_file" style="rounded=1;whiteSpace=wrap;html=1;" vertex="1" parent="WIyWlLk6GJQsqaUBKTNV-1">
          <mxGeometry x="1030" y="560" width="120" height="60" as="geometry" />
        </mxCell>
        <mxCell id="urxwOVvsEIFJY8-znygt-73" value="" style="edgeStyle=orthogonalEdgeStyle;rounded=0;orthogonalLoop=1;jettySize=auto;html=1;" edge="1" parent="WIyWlLk6GJQsqaUBKTNV-1" source="urxwOVvsEIFJY8-znygt-71" target="urxwOVvsEIFJY8-znygt-72">
          <mxGeometry relative="1" as="geometry" />
        </mxCell>
        <mxCell id="urxwOVvsEIFJY8-znygt-71" value="avio_open" style="rounded=0;whiteSpace=wrap;html=1;" vertex="1" parent="WIyWlLk6GJQsqaUBKTNV-1">
          <mxGeometry x="1030" y="700" width="120" height="60" as="geometry" />
        </mxCell>
        <mxCell id="urxwOVvsEIFJY8-znygt-76" value="" style="edgeStyle=orthogonalEdgeStyle;rounded=0;orthogonalLoop=1;jettySize=auto;html=1;" edge="1" parent="WIyWlLk6GJQsqaUBKTNV-1" source="urxwOVvsEIFJY8-znygt-72" target="urxwOVvsEIFJY8-znygt-75">
          <mxGeometry relative="1" as="geometry" />
        </mxCell>
        <mxCell id="urxwOVvsEIFJY8-znygt-72" value="av_dict_parse_string" style="rounded=0;whiteSpace=wrap;html=1;direction=west;" vertex="1" parent="WIyWlLk6GJQsqaUBKTNV-1">
          <mxGeometry x="1020" y="840" width="140" height="60" as="geometry" />
        </mxCell>
        <mxCell id="urxwOVvsEIFJY8-znygt-74" value="解析mux字符串" style="text;html=1;strokeColor=none;fillColor=none;align=center;verticalAlign=middle;whiteSpace=wrap;rounded=0;" vertex="1" parent="WIyWlLk6GJQsqaUBKTNV-1">
          <mxGeometry x="1170" y="840" width="60" height="20" as="geometry" />
        </mxCell>
        <mxCell id="urxwOVvsEIFJY8-znygt-75" value="avformat_write_header" style="rounded=0;whiteSpace=wrap;html=1;direction=west;" vertex="1" parent="WIyWlLk6GJQsqaUBKTNV-1">
          <mxGeometry x="1020" y="980" width="140" height="60" as="geometry" />
        </mxCell>
        <mxCell id="urxwOVvsEIFJY8-znygt-80" value="" style="edgeStyle=orthogonalEdgeStyle;rounded=0;orthogonalLoop=1;jettySize=auto;html=1;" edge="1" parent="WIyWlLk6GJQsqaUBKTNV-1" source="urxwOVvsEIFJY8-znygt-77" target="urxwOVvsEIFJY8-znygt-79">
          <mxGeometry relative="1" as="geometry" />
        </mxCell>
        <mxCell id="urxwOVvsEIFJY8-znygt-77" value="读取帧数据" style="rounded=0;whiteSpace=wrap;html=1;" vertex="1" parent="WIyWlLk6GJQsqaUBKTNV-1">
          <mxGeometry x="160" y="1190" width="120" height="60" as="geometry" />
        </mxCell>
        <mxCell id="urxwOVvsEIFJY8-znygt-79" value="ffmpeg_mux_packet" style="rounded=0;whiteSpace=wrap;html=1;" vertex="1" parent="WIyWlLk6GJQsqaUBKTNV-1">
          <mxGeometry x="160" y="1330" width="120" height="60" as="geometry" />
        </mxCell>
        <mxCell id="urxwOVvsEIFJY8-znygt-83" style="edgeStyle=orthogonalEdgeStyle;rounded=0;orthogonalLoop=1;jettySize=auto;html=1;entryX=0.5;entryY=0;entryDx=0;entryDy=0;" edge="1" parent="WIyWlLk6GJQsqaUBKTNV-1" source="urxwOVvsEIFJY8-znygt-81" target="urxwOVvsEIFJY8-znygt-82">
          <mxGeometry relative="1" as="geometry" />
        </mxCell>
        <mxCell id="urxwOVvsEIFJY8-znygt-81" value="&lt;span&gt;ffmpeg_mux_packet&lt;/span&gt;" style="rounded=1;whiteSpace=wrap;html=1;" vertex="1" parent="WIyWlLk6GJQsqaUBKTNV-1">
          <mxGeometry x="1360" y="555" width="120" height="60" as="geometry" />
        </mxCell>
        <mxCell id="urxwOVvsEIFJY8-znygt-85" value="" style="edgeStyle=orthogonalEdgeStyle;rounded=0;orthogonalLoop=1;jettySize=auto;html=1;" edge="1" parent="WIyWlLk6GJQsqaUBKTNV-1" source="urxwOVvsEIFJY8-znygt-82" target="urxwOVvsEIFJY8-znygt-84">
          <mxGeometry relative="1" as="geometry" />
        </mxCell>
        <mxCell id="urxwOVvsEIFJY8-znygt-82" value="get_codec_context(ffm, info)-&amp;gt;time_base;" style="rounded=0;whiteSpace=wrap;html=1;" vertex="1" parent="WIyWlLk6GJQsqaUBKTNV-1">
          <mxGeometry x="1300" y="680" width="240" height="60" as="geometry" />
        </mxCell>
        <mxCell id="urxwOVvsEIFJY8-znygt-87" value="" style="edgeStyle=orthogonalEdgeStyle;rounded=0;orthogonalLoop=1;jettySize=auto;html=1;" edge="1" parent="WIyWlLk6GJQsqaUBKTNV-1" source="urxwOVvsEIFJY8-znygt-84" target="urxwOVvsEIFJY8-znygt-86">
          <mxGeometry relative="1" as="geometry" />
        </mxCell>
        <mxCell id="urxwOVvsEIFJY8-znygt-84" value="av_init_packet" style="rounded=0;whiteSpace=wrap;html=1;" vertex="1" parent="WIyWlLk6GJQsqaUBKTNV-1">
          <mxGeometry x="1375" y="800" width="90" height="60" as="geometry" />
        </mxCell>
        <mxCell id="urxwOVvsEIFJY8-znygt-90" value="" style="edgeStyle=orthogonalEdgeStyle;rounded=0;orthogonalLoop=1;jettySize=auto;html=1;" edge="1" parent="WIyWlLk6GJQsqaUBKTNV-1" source="urxwOVvsEIFJY8-znygt-86" target="urxwOVvsEIFJY8-znygt-89">
          <mxGeometry relative="1" as="geometry" />
        </mxCell>
        <mxCell id="urxwOVvsEIFJY8-znygt-86" value="rescale_ts" style="whiteSpace=wrap;html=1;rounded=0;" vertex="1" parent="WIyWlLk6GJQsqaUBKTNV-1">
          <mxGeometry x="1360" y="920" width="120" height="60" as="geometry" />
        </mxCell>
        <mxCell id="urxwOVvsEIFJY8-znygt-88" value="pts时间转换" style="text;html=1;strokeColor=none;fillColor=none;align=center;verticalAlign=middle;whiteSpace=wrap;rounded=0;" vertex="1" parent="WIyWlLk6GJQsqaUBKTNV-1">
          <mxGeometry x="1490" y="930" width="50" height="40" as="geometry" />
        </mxCell>
        <mxCell id="urxwOVvsEIFJY8-znygt-89" value="av_interleaved_write_frame" style="whiteSpace=wrap;html=1;rounded=0;" vertex="1" parent="WIyWlLk6GJQsqaUBKTNV-1">
          <mxGeometry x="1330" y="1040" width="180" height="60" as="geometry" />
        </mxCell>
      </root>
    </mxGraphModel>
  </diagram>
</mxfile>
